<svg width="1040" height="1040" viewBox="0 0 1040 1040" fill="none" xmlns="http://www.w3.org/2000/svg">
<path d="M1040 520C1040 807.188 807.188 1040 520 1040C232.812 1040 0 807.188 0 520C0 232.812 232.812 0 520 0C807.188 0 1040 232.812 1040 520Z" fill="#C3B5FA"/>
<path d="M240 555.239L268.6 516.239L380.4 516.239C424.6 517.539 444.1 544.839 448 550.039C466.2 520.139 545.5 492.839 598.8 534.439V516.239H780.8V608.539H775.6V659.239H780.8V750.239L752.2 789.239H570.2V773.639C480.5 824.339 403.8 765.839 401.2 719.039C394.96 725.279 377.8 730.305 370 732.039V750.239L341.4 789.239H240V555.239Z" fill="#282A2D"/>
<path d="M289.4 723.209V541.682H367.755C381.227 541.682 393.016 544.341 403.12 549.659C413.225 554.977 421.084 562.452 426.698 572.084C432.311 581.716 435.118 592.973 435.118 605.854C435.118 618.854 432.223 630.111 426.432 639.625C420.7 649.139 412.634 656.466 402.234 661.607C391.893 666.748 379.809 669.318 365.982 669.318H338.682V631.027H356.055C361.845 631.027 366.78 630.023 370.857 628.014C374.993 625.945 378.155 623.02 380.341 619.239C382.586 615.457 383.709 610.995 383.709 605.854C383.709 600.654 382.586 596.223 380.341 592.559C378.155 588.836 374.993 586 370.857 584.05C366.78 582.041 361.845 581.036 356.055 581.036H338.682V723.209H289.4Z" fill="#FCFCFC"/>
<path d="M551.055 598.409C550.582 592.5 548.366 587.891 544.407 584.582C540.507 581.273 534.568 579.618 526.591 579.618C521.509 579.618 517.343 580.239 514.093 581.479C510.902 582.661 508.539 584.286 507.002 586.354C505.466 588.423 504.668 590.786 504.609 593.445C504.491 595.632 504.875 597.611 505.761 599.384C506.707 601.098 508.184 602.664 510.193 604.082C512.202 605.441 514.773 606.682 517.905 607.805C521.036 608.927 524.759 609.932 529.073 610.818L543.964 614.009C554.009 616.136 562.607 618.943 569.757 622.43C576.907 625.916 582.757 630.023 587.307 634.75C591.857 639.418 595.195 644.677 597.323 650.527C599.509 656.377 600.632 662.759 600.691 669.673C600.632 681.609 597.648 691.714 591.739 699.986C585.83 708.259 577.38 714.552 566.389 718.866C555.457 723.18 542.309 725.336 526.945 725.336C511.168 725.336 497.4 723.002 485.641 718.334C473.941 713.666 464.841 706.486 458.341 696.795C451.9 687.045 448.65 674.577 448.591 659.391H495.391C495.686 664.945 497.075 669.614 499.557 673.395C502.039 677.177 505.525 680.043 510.016 681.993C514.566 683.943 519.973 684.918 526.236 684.918C531.495 684.918 535.898 684.268 539.443 682.968C542.989 681.668 545.677 679.866 547.509 677.561C549.341 675.257 550.286 672.627 550.345 669.673C550.286 666.895 549.37 664.473 547.598 662.405C545.884 660.277 543.048 658.386 539.089 656.732C535.13 655.018 529.782 653.423 523.045 651.945L504.964 648.045C488.891 644.559 476.216 638.739 466.939 630.584C457.72 622.37 453.141 611.173 453.2 596.991C453.141 585.468 456.214 575.393 462.418 566.766C468.682 558.079 477.339 551.314 488.389 546.468C499.498 541.623 512.232 539.2 526.591 539.2C541.245 539.2 553.92 541.652 564.616 546.557C575.311 551.461 583.555 558.375 589.345 567.298C595.195 576.161 598.15 586.532 598.209 598.409H551.055Z" fill="#FCFCFC"/>
<path d="M619.438 723.209V541.682H750.265V581.391H668.719V612.591H743.528V652.3H668.719V683.5H749.91V723.209H619.438Z" fill="#FCFCFC"/>
<path d="M609.962 323.2C608.94 321.975 607.534 321.13 605.972 320.804C604.41 320.478 602.784 320.689 601.357 321.404L519.615 362.258L437.873 321.404C436.448 320.69 434.823 320.478 433.262 320.802C431.701 321.127 430.295 321.97 429.273 323.193C428.251 324.416 427.672 325.948 427.63 327.542C427.588 329.135 428.086 330.696 429.043 331.971L513.954 445.142C514.039 445.256 514.181 445.298 514.28 445.411C514.752 445.969 515.311 446.446 515.936 446.826C516.159 446.999 516.396 447.155 516.643 447.293C517.565 447.758 518.583 448 519.615 448C520.648 448 521.666 447.758 522.587 447.293C522.835 447.155 523.071 446.999 523.295 446.826C523.919 446.446 524.478 445.969 524.951 445.411C525.05 445.298 525.191 445.256 525.276 445.142L610.188 331.971C611.143 330.697 611.641 329.138 611.599 327.546C611.558 325.954 610.981 324.423 609.962 323.2ZM512.539 374.538V419.679L458.351 347.532L512.539 374.538ZM526.691 419.679V374.538L580.879 347.532L526.691 419.679Z" fill="#282A2D"/>
<path d="M427.826 300.254C427.819 300.643 427.847 301.031 427.911 301.414C427.982 301.641 428.151 301.811 428.236 302.023C428.27 302.219 428.317 302.413 428.378 302.603C428.463 302.787 428.675 302.857 428.774 303.027C429.248 303.812 429.873 304.495 430.614 305.036C430.854 305.206 431.024 305.404 431.265 305.545C431.505 305.687 431.435 305.715 431.534 305.757L516.446 348.197H516.644C517.568 348.652 518.585 348.889 519.616 348.889C520.646 348.889 521.663 348.652 522.587 348.197H522.786L607.698 305.757C607.905 305.614 608.104 305.458 608.292 305.291C608.734 305.014 609.143 304.686 609.509 304.314C609.822 303.995 610.102 303.644 610.344 303.268C610.526 303.056 610.696 302.834 610.853 302.603C610.952 302.391 610.938 302.178 611.023 301.98C611.133 301.798 611.232 301.609 611.32 301.414C611.341 301.16 611.341 300.905 611.32 300.651C611.421 300.162 611.459 299.663 611.434 299.165C611.418 298.751 611.366 298.339 611.278 297.934C611.162 297.445 610.991 296.971 610.768 296.52C610.708 296.293 610.632 296.071 610.542 295.855L525.63 154.39C525.531 154.235 525.347 154.178 525.248 154.037C524.628 153.103 523.787 152.337 522.799 151.807C521.812 151.277 520.708 151 519.587 151C518.466 151 517.363 151.277 516.375 151.807C515.387 152.337 514.546 153.103 513.926 154.037C513.827 154.178 513.643 154.235 513.544 154.39L428.633 295.855C428.068 296.859 427.757 297.985 427.727 299.137C427.727 299.264 427.628 299.363 427.628 299.491C427.678 299.749 427.744 300.004 427.826 300.254ZM512.54 330.429L450.526 299.434L512.54 268.439V330.429ZM526.692 268.439L588.706 299.434L526.692 330.429V268.439ZM526.692 252.623V183.504L585.946 282.232L526.692 252.623ZM512.54 252.623L453.271 282.246L512.54 183.504V252.623Z" fill="#282A2D"/>
<path d="M1040 520C1040 807.188 807.188 1040 520 1040C232.812 1040 0 807.188 0 520C0 232.812 232.812 0 520 0C807.188 0 1040 232.812 1040 520ZM20.8847 520C20.8847 795.654 244.346 1019.12 520 1019.12C795.654 1019.12 1019.12 795.654 1019.12 520C1019.12 244.346 795.654 20.8847 520 20.8847C244.346 20.8847 20.8847 244.346 20.8847 520Z" fill="#282A2D"/>
</svg>
